Coordinates
version=1
nRows=11
nColumns=40
inDegrees=yes

Units are S.I. units (second, meters, Newtons, ...)
If the header above contains a line with 'inDegrees', this indicates whether rotational values are in degrees (yes) or radians (no).

endheader
time	pelvis_tilt	pelvis_list	pelvis_rotation	pelvis_tx	pelvis_ty	pelvis_tz	hip_flexion_r	hip_adduction_r	hip_rotation_r	knee_angle_r	knee_angle_r_beta	ankle_angle_r	subtalar_angle_r	mtp_angle_r	hip_flexion_l	hip_adduction_l	hip_rotation_l	knee_angle_l	knee_angle_l_beta	ankle_angle_l	subtalar_angle_l	mtp_angle_l	lumbar_extension	lumbar_bending	lumbar_rotation	arm_flex_r	arm_add_r	arm_rot_r	elbow_flex_r	pro_sup_r	wrist_flex_r	wrist_dev_r	arm_flex_l	arm_add_l	arm_rot_l	elbow_flex_l	pro_sup_l	wrist_flex_l	wrist_dev_l
      2.75000000	      1.61384622	     -7.44292536	     -1.24400649	     -0.34709475	      0.94535185	     -1.05723151	     46.49957737	     -0.25312853	    -10.86673858	     34.31742042	      0.59895198	     -9.00563120	      0.00000000	      0.00000000	     32.86062891	     -6.04399051	     -5.50275945	     60.72191069	      1.05979727	     13.79619999	      0.00000000	      0.00000000	    -19.35423033	      4.33746859	      6.27437475	     85.47675246	    -26.73535572	     38.49446503	     44.74197782	     81.39973469	      0.00000000	      0.00000000	     87.46512937	    -25.73005283	     52.06850791	     38.59932233	     81.50815507	      0.00000000	      0.00000000
      2.75500000	      1.56745565	     -7.47221925	     -1.18066967	     -0.34735398	      0.94440683	     -1.05732556	     46.65877177	     -0.31961308	    -10.92935324	     34.43169337	      0.60094642	     -8.96299620	      0.00000000	      0.00000000	     33.05711706	     -6.06106506	     -5.45627498	     60.95121831	      1.06379944	     13.85250702	      0.00000000	      0.00000000	    -19.35924586	      4.38137432	      6.20437888	     85.64336039	    -26.70110485	     38.61092540	     44.62930594	     81.51660896	      0.00000000	      0.00000000	     87.54656726	    -25.71180420	     51.98853432	     38.60104276	     81.76438223	      0.00000000	      0.00000000
      2.76000000	      1.58101610	     -7.45447601	     -1.14512921	     -0.34772606	      0.94362511	     -1.05737016	     46.76579812	     -0.39702999	    -10.93132752	     34.54356261	      0.60289890	     -8.90138399	      0.00000000	      0.00000000	     33.16499871	     -6.03961542	     -5.43771987	     61.13770892	      1.06705432	     13.93121020	      0.00000000	      0.00000000	    -19.42722827	      4.34930193	      6.23025077	     85.73143086	    -26.76012182	     38.56086797	     44.62595495	     81.48003236	      0.00000000	      0.00000000	     87.68586141	    -25.55880518	     52.02817817	     38.50895068	     81.66479691	      0.00000000	      0.00000000
      2.76500000	      1.53816486	     -7.45184416	     -1.13002368	     -0.34780088	      0.94277805	     -1.05742464	     46.91696869	     -0.45588395	    -10.95117578	     34.66957076	      0.60509816	     -8.77503116	      0.00000000	      0.00000000	     33.30999981	     -6.04656833	     -5.45130408	     61.32338337	      1.07029495	     14.01377276	      0.00000000	      0.00000000	    -19.43207257	      4.33936459	      6.20316778	     85.80487502	    -26.75446429	     38.55799418	     44.63087287	     81.37386969	      0.00000000	      0.00000000	     87.78183096	    -25.53097115	     52.07870163	     38.49945583	     81.51721662	      0.00000000	      0.00000000
      2.77000000	      1.54752061	     -7.44931310	     -1.08187922	     -0.34823595	      0.94194260	     -1.05748403	     47.04435370	     -0.52955432	    -10.94426234	     34.80191759	      0.60740805	     -8.71904998	      0.00000000	      0.00000000	     33.43184836	     -6.03473354	     -5.42724192	     61.51121510	      1.07357323	     14.07637457	      0.00000000	      0.00000000	    -19.53366204	      4.32745487	      6.17875911	     85.97671743	    -26.77183707	     38.60183478	     44.58939141	     81.45940512	      0.00000000	      0.00000000	     87.92954273	    -25.45077807	     52.01263744	     38.47877768	     81.54732683	      0.00000000	      0.00000000
      2.77500000	      1.52164100	     -7.49370227	     -0.98954596	     -0.34853515	      0.94105187	     -1.05763110	     47.17287583	     -0.60783457	    -11.07276070	     34.89543092	      0.60904016	     -8.59642229	      0.00000000	      0.00000000	     33.60893367	     -6.03055418	     -5.30304427	     61.72224506	      1.07725640	     14.14964239	      0.00000000	      0.00000000	    -19.56243735	      4.38930685	      6.12096234	     86.10142205	    -26.77502169	     38.61368474	     44.52864978	     81.42791184	      0.00000000	      0.00000000	     88.04063501	    -25.39248686	     52.03380870	     38.39566507	     81.57401168	      0.00000000	      0.00000000
      2.78000000	      1.49748089	     -7.45926236	     -0.96351917	     -0.34888057	      0.94010936	     -1.05770358	     47.34696080	     -0.70675751	    -11.09127024	     35.06034583	      0.61191847	     -8.48954920	      0.00000000	      0.00000000	     33.75242990	     -5.99996413	     -5.33835361	     61.92067985	      1.08071974	     14.21808571	      0.00000000	      0.00000000	    -19.60578237	      4.36489979	      6.03851495	     86.42024257	    -26.74491258	     39.44625590	     44.41563386	     78.93153247	      0.00000000	      0.00000000	     88.23965502	    -25.41919036	     52.60086040	     38.45656215	     79.27000949	      0.00000000	      0.00000000
      2.78500000	      1.51577106	     -7.48405324	     -0.90651746	     -0.34912296	      0.93940297	     -1.05776661	     47.41461832	     -0.74222794	    -11.09606848	     35.11766063	      0.61291880	     -8.44480017	      0.00000000	      0.00000000	     33.85089015	     -5.99855085	     -5.27913251	     62.08177147	      1.08353132	     14.29541005	      0.00000000	      0.00000000	    -19.68366420	      4.38427302	      6.03288595	     86.37055365	    -26.67014077	     38.60467774	     44.35722377	     81.30167142	      0.00000000	      0.00000000	     88.28855762	    -25.28319483	     52.12637847	     38.29704313	     81.52381809	      0.00000000	      0.00000000
      2.79000000	      1.49455520	     -7.48402024	     -0.87931219	     -0.34940943	      0.93860798	     -1.05789640	     47.54416159	     -0.80888012	    -11.15266182	     35.20200828	      0.61439095	     -8.37047305	      0.00000000	      0.00000000	     33.99269382	     -5.99452333	     -5.27475446	     62.26654658	      1.08675625	     14.33946887	      0.00000000	      0.00000000	    -19.72809810	      4.38339338	      6.04386161	     86.52116506	    -26.75596201	     38.72385209	     44.37235276	     81.41296904	      0.00000000	      0.00000000	     88.35704565	    -25.16318348	     51.89564516	     38.27265937	     81.60588333	      0.00000000	      0.00000000
      2.79500000	      1.47439610	     -7.45917157	     -0.84763413	     -0.34979462	      0.93777330	     -1.05794568	     47.69058209	     -0.87925672	    -11.13862965	     35.30760362	      0.61623393	     -8.29339087	      0.00000000	      0.00000000	     34.14492842	     -5.94817939	     -5.23503791	     62.44648084	      1.08989670	     14.38267558	      0.00000000	      0.00000000	    -19.77829784	      4.37910803	      5.92414559	     86.64818638	    -26.51560137	     38.58153034	     44.17913603	     81.26575246	      0.00000000	      0.00000000	     88.45694279	    -25.27096216	     51.96606979	     38.38336287	     81.44149791	      0.00000000	      0.00000000
      2.80000000	      1.43440192	     -7.55073348	     -0.81397154	     -0.34999081	      0.93687576	     -1.05799840	     47.82370493	     -0.86549280	    -11.23412545	     35.37058476	      0.61733316	     -8.26964453	      0.00000000	      0.00000000	     34.32438204	     -6.02314569	     -5.14820066	     62.68030317	      1.09397767	     14.49256207	      0.00000000	      0.00000000	    -19.77815122	      4.47147567	      5.97271743	     86.76870028	    -26.61277711	     38.66659560	     44.19478881	     81.52329561	      0.00000000	      0.00000000	     88.50295692	    -25.10670936	     51.75973706	     38.27270409	     81.67682233	      0.00000000	      0.00000000
